<svg width="542" height="119" viewBox="0 0 542 119" fill="none" xmlns="http://www.w3.org/2000/svg">
<g clip-path="url(#clip0_644_5)">
<path d="M121.2 12H121.6C125.062 19.2 126.8 23.337 126.8 24.4L126 24.8L124.8 24.4H124C124 26.8 125.731 34.8 129.2 48.4C131.331 56.931 132.4 63.2 132.4 67.2C132.4 75.462 127.462 80.663 117.6 82.8C114.662 83.863 113.2 85.462 113.2 87.601C111.331 91.331 110.4 95.331 110.4 99.601C110.4 104.132 112.4 106.4 116.4 106.4H117.6C124.263 106.4 133.462 100.664 145.2 89.201C157.462 78.801 164.931 73.063 167.6 72.001V71.602C166.8 70.264 163.731 68.133 158.4 65.202C157.063 62.533 156.4 60.264 156.4 58.402C156.4 54.402 160.131 52.133 167.6 51.602H168L170.8 52.002H171.2C179.731 52.002 190.531 53.464 203.6 56.402V57.602C203.6 61.864 199.6 64.933 191.6 66.802C184.131 69.734 179.062 72.265 176.4 74.402L178.8 79.603V84.402L178 84.802C175.6 84.802 173.2 83.464 170.8 80.802H170C165.731 89.065 163.6 94.933 163.6 98.402C163.6 99.734 164.263 100.802 165.6 101.603H168C171.2 101.603 176.263 97.603 183.2 89.603C187.731 86.134 195.462 82.802 206.4 79.603C208.263 78.534 210.531 76.665 213.2 74.002C212.931 72.134 212.662 70.533 212.4 69.202C206.531 43.333 203.2 27.471 202.4 21.602V20C202.663 16.8 203.2 15.2 204 15.2C207.462 20.537 209.2 24.537 209.2 27.2L208.4 27.6L207.2 27.2V27.6L215.2 62.8L215.6 68.4V69.601C215.331 78.4 211.062 84 202.8 86.4C192.4 89.063 184.263 93.863 178.4 100.8C174.4 104.531 171.331 106.4 169.2 106.4H168C165.6 106.4 163.6 103.601 162 98.001C162 93.463 164.663 87.063 170 78.801V77.602C166.8 77.864 156 86.133 137.6 102.401C129.062 109.333 122.131 112.801 116.8 112.801C111.2 112.801 108.4 109.332 108.4 102.401V100C108.4 96.263 109.6 91.462 112 85.601H111.2C107.2 85.601 100 90.4 89.6 100C87.2 101.601 85.331 102.399 84 102.399C79.731 101.6 77.6 99.331 77.6 95.6L77.2 93.2C77.2 87.331 79.6 80.93 84.4 74L85.2 70.399C81.731 69.331 79.331 67.731 78 65.6L75.2 60L74.8 59.2H74.4C73.063 60 71.862 62.132 70.8 65.6L66.8 70.399C68.663 70.399 70.263 73.2 71.6 78.799V80.399C71.6 83.6 69.731 85.2 66 85.2C60.663 85.2 57.062 82.531 55.2 77.2V76.399C54.4 76.399 53.062 79.062 51.2 84.399C43.462 92.131 33.862 98.262 22.4 102.799C12.531 106.263 5.063 108 0 108V106.8C0 106.263 8.4 102.663 25.2 96C35.062 91.462 43.731 85.601 51.2 78.399C54.131 71.2 56 67.462 56.8 67.2C64 67.2 69.6 62.93 73.6 54.4L76 53.2C78.663 59.6 80.663 62.8 82 62.8H82.8V62.4L81.6 56.4C81.6 48.663 85.6 44.8 93.6 44.8C95.462 44.8 102 46.262 113.2 49.2C118.8 50.8 121.6 51.863 121.6 52.4C121.6 55.863 118.662 58.131 112.8 59.2C103.2 65.331 94.663 69.2 87.2 70.8C87.2 73.462 85.6 76.8 82.4 80.8C80 85.331 78.8 88.8 78.8 91.2V93.2C78.8 95.862 79.863 97.2 82 97.2H82.8C86 97.2 90.931 93.862 97.6 87.2C99.731 84 108.8 79.862 124.8 74.8C128 72.132 129.6 70.531 129.6 70C128.531 61.2 126 48.931 122 33.2L119.2 17.2C119.2 14.8 119.862 13.069 121.2 12ZM42 101.601H42.8V102C42 103.063 37.063 105.462 28 109.2H27.6V108.399C36.931 103.862 41.731 101.601 42 101.601ZM50 50.8C51.331 50.8 52.4 51.331 53.2 52.4V53.6H52.8V54.4C50.132 53.332 48.8 52.531 48.8 52V51.6L50 50.8ZM52 97.2C53.331 97.2 54.931 98.132 56.8 100C56.8 101.601 55.732 103.2 53.6 104.8L49.2 102.4V102C49.2 100.663 50.131 99.063 52 97.2ZM56 49.2H56.8L57.6 50V50.4C57.6 50.931 56.931 51.2 55.6 51.2V53.6L54.4 54.8L54 54.4C54.263 50.931 54.931 49.2 56 49.2ZM58 74V74.8C59.6 77.732 62.531 79.2 66.8 79.2H67.2V78.8C67.2 77.2 64.131 75.601 58 74ZM61.6 95.601H62C62.8 95.601 64.4 96.4 66.8 98V98.8C66.263 101.732 65.463 103.2 64.4 103.2C63.063 103.2 61.462 102.132 59.6 100C60.131 97.063 60.8 95.601 61.6 95.601ZM63.6 35.6H64C65.862 35.6 66.8 36.4 66.8 38C65.732 39.332 64.531 40 63.2 40H61.6C61.862 37.063 62.531 35.6 63.6 35.6ZM71.6 105.2H73.6L76 107.6C76 108.663 73.862 109.33 69.6 109.6L72.4 118.399H71.6L69.2 110.399V109.2C70 108.132 71.062 107.6 72.4 107.6C72.4 107.062 72 106.799 71.2 106.799V106L71.6 105.2ZM111.2 16.4V17.2C110.4 18.537 103.6 21.868 90.8 27.2C83.862 30.4 79.862 32.669 78.8 34L78 33.2C78.263 31.869 89.331 26.269 111.2 16.4ZM83.6 54.4C84.931 61.063 86.131 64.4 87.2 64.4C93.331 64.4 100.931 61.332 110 55.201C103.862 52.801 97.462 51.201 90.8 50.401C86.263 51.2 83.862 52.531 83.6 54.4ZM92 106.399H92.8C94.4 106.663 95.2 107.062 95.2 107.6V108L92.8 111.2V111.6H93.6L99.2 111.2V111.6C99.2 112.663 97.331 113.33 93.6 113.6H92.4L92 112.8V110.4L93.6 108.4V108H92.8H91.6L90.8 107.601L92 106.399ZM98.8 70.399H99.2C101.862 72.262 103.2 74.262 103.2 76.399L102.8 77.2H102.4C101.331 75.062 100 73.2 98.4 71.6L98.8 70.399ZM111.2 30L112.8 34.8C112.8 36.131 111.732 36.8 109.6 36.8L107.6 38C106.263 38 105.6 36.4 105.6 33.2V32.8H106.4L107.6 35.6H109.2L108 31.2L108.4 30.8C109.463 30.8 110 31.738 110 33.6L111.2 34.8L110 30.4L110.4 30H111.2ZM128 0C128.263 0 129.2 1.469 130.8 4.4H131.6L135.6 0.8L137.2 0C139.062 1.069 140 2.138 140 3.2C138.4 5.069 136.263 6 133.6 6C133.6 6.8 132.662 7.2 130.8 7.2L129.6 6C128.263 6.8 126.931 7.2 125.6 7.2H124.8L124 6.4V6C126.663 5.469 128 4.937 128 4.4L127.6 0.8L128 0ZM129.6 82C132.8 83.331 134.4 84.132 134.4 84.399V86.399C133.862 88.531 133.2 89.6 132.4 89.6H131.2C128.8 88.262 127.6 87.2 127.6 86.399L129.6 82ZM134.4 4.4H134.8C136.4 4.138 137.2 3.738 137.2 3.2V2.8H136L134.4 4.4ZM139.2 11.2H139.6C142.531 17.337 144 20.937 144 22L143.2 22.8L142 22V22.8C144.931 35.337 146.931 45.863 148 54.4C148.8 54.4 149.462 59.463 150 69.601C150 72.532 149.462 74.8 148.4 76.4L146.8 75.601V72.8L147.2 72H146.8V69.2C145.732 60.663 143.331 46.662 139.6 27.2C139.062 23.738 138.4 22 137.6 22H138V21.2L136.8 15.6C137.331 12.669 138.131 11.2 139.2 11.2ZM157.2 100V100.399C146.8 107.062 140.662 110.399 138.8 110.399H138V109.6C140.663 107.462 147.063 104.263 157.2 100ZM151.6 30C153.2 31.069 154 33.738 154 38H153.2L150.8 30.4L151.2 30H151.6ZM183.6 10C184.4 10 184.8 10.269 184.8 10.8L184 12H183.6L183.2 11.6C177.6 14.8 171.062 16.4 163.6 16.4H158.4C158.4 17.2 158.131 17.6 157.6 17.6C156 15.469 155.2 13.869 155.2 12.8C158.4 14.137 160.931 14.8 162.8 14.8C169.462 14.8 176.4 13.2 183.6 10ZM160.4 59.2C160.663 60 163.6 62.399 169.2 66.399C170.8 67.731 171.6 68.799 171.6 69.6L191.2 61.2C191.2 59.862 182.662 58.931 165.6 58.4H164.4L160.4 59.2ZM194.4 21.2L194.8 21.6V22C191.331 24.4 183.331 27.469 170.8 31.2L162.8 34.8V36.8H162.4C161.862 36.8 161.6 36.4 161.6 35.6C161.6 32.669 166.8 30 177.2 27.6C187.331 23.337 193.063 21.2 194.4 21.2ZM171.6 39.6C172.931 39.6 173.862 40.263 174.4 41.6V42.4L173.2 44H170.8C170.263 44 170 43.462 170 42.4C170.531 40.8 171.063 39.863 171.6 39.6ZM194.4 38C194.4 39.332 192.663 40.531 189.2 41.6C187.6 40.8 186.8 39.2 186.8 36.8V36L187.2 35.6L188.8 38.8H190L189.2 35.6V34.8H190C190.8 35.069 191.2 36.131 191.2 38H192.4L191.2 34.8L191.6 34C192.663 34.269 193.6 35.6 194.4 38ZM190 100.8C192.663 101.863 194 102.663 194 103.2C194 104.8 192.131 105.6 188.4 105.6C190.263 110.93 191.2 114.399 191.2 115.999H190L187.2 106.799V105.6C187.731 103.999 188.263 103.2 188.8 103.2L188.4 102.8V102.4L190 100.8ZM204 95.601C205.6 96.132 206.4 96.664 206.4 97.201V98C204.531 99.331 203.6 100.531 203.6 101.601H206.4L212.4 100C210.263 102.663 207.462 104 204 104C202.931 104 202.131 103.462 201.6 102.399L203.2 98H202.8H201.2C201.731 96.399 202.663 95.601 204 95.601ZM212 2.8L214.4 7.2H215.6L220 4H222C223.6 4 224.4 4.4 224.4 5.2V6C224.4 8.669 222 10 217.2 10L215.2 10.4L214.4 10.8C214.4 9.737 214.131 9.2 213.6 9.2C212.531 10.269 211.331 10.8 210 10.8H209.2V10L212.8 8.4C211.732 6 211.2 4.269 211.2 3.2L211.6 2.8H212ZM246.8 94V94.399C246.8 96 240.531 98.663 228 102.399C225.062 104 223.6 105.062 223.6 105.6L221.2 105.2L216.8 106.8V106C216.8 104.663 223.6 101.731 237.2 97.2C242.263 95.063 245.462 94 246.8 94ZM218.8 7.2H219.6H221.6V6H220.8L218.8 7.2ZM222.4 14.8C225.063 20.669 226.4 24.537 226.4 26.4H224.8C228.8 48 230.8 61.462 230.8 66.8C230.263 71.331 229.463 73.601 228.4 73.601L228 72.8L228.4 67.2L222.4 34.8L222.8 33.2L220 20C220.8 16.538 221.6 14.8 222.4 14.8ZM267.2 53.2C270.4 57.2 272 59.862 272 61.2V61.6C271.2 61.6 270.8 61.862 270.8 62.399C273.732 69.6 275.2 74.262 275.2 76.399V77.6C274.662 83.999 272.531 87.2 268.8 87.2H267.6C263.862 87.2 261.062 85.062 259.2 80.8V80.4H258.4C258.4 84.664 255.462 87.863 249.6 90.001H246.4C242.931 90.001 240.531 86.801 239.2 80.4L240 72.8C238.131 74.931 236.531 80.263 235.2 88.8C233.6 91.2 232.131 92.531 230.8 92.8C227.331 92.8 224.8 87.732 223.2 77.601C223.462 73.862 224 72 224.8 72C225.331 72 225.6 75.331 225.6 82C227.2 85.462 228.931 87.2 230.8 87.2C232.4 87.2 234.4 82.132 236.8 72C238.663 67.2 240.531 64.531 242.4 64C243.2 65.063 243.6 66.132 243.6 67.2L242.4 77.2C242.663 81.731 244.663 84 248.4 84H249.2C253.2 84 255.862 81.862 257.2 77.601L254.8 61.201V60C254.8 57.332 255.2 56 256 56C258.4 59.462 260.131 65.331 261.2 73.601C262.531 78.664 264.931 81.201 268.4 81.201H268.8L273.2 79.601C268.4 67.601 266 60.4 266 58V55.2C266.263 53.863 266.663 53.2 267.2 53.2ZM526.4 39.6C528.262 40.931 529.2 44.131 529.2 49.2C532.931 57.2 534.8 62.663 534.8 65.6V67.6C534.8 73.461 532.531 76.799 528 77.6C525.862 77.6 523.331 76.131 520.4 73.2H520C520 75.862 517.862 77.731 513.6 78.8H512.8C510.662 78.8 509.063 77.601 508 75.2C505.331 78.132 501.062 79.6 495.2 79.6C492.531 79.6 490.8 77.6 490 73.6H489.6C478.4 77.063 456.531 81.2 424 86C402.662 88.663 384.131 90 368.4 90C347.062 90 328.931 87.862 314 83.601H313.2C313.2 87.063 311.731 88.8 308.8 88.8C305.6 88 302.131 86.531 298.401 84.4C295.201 91.601 287.332 98.4 274.8 104.8C265.732 110.132 252.663 113.863 235.6 116H232.4V115.2L268.4 102C280.662 95.862 289.063 90.399 293.6 85.601C298.663 76.263 302.401 71.601 304.8 71.601H305.6L315.201 77.201C328.001 81.732 346.001 84.001 369.201 84.001H376.401C405.732 84.001 441.863 79.201 484.8 69.602C488.263 68.264 491.063 67.602 493.2 67.602V68.401L492.8 69.602V70C492.8 72.132 494 73.331 496.401 73.601H498.8C502.531 73.601 506.263 71.601 510 67.601C510.531 67.601 510.932 68.8 511.2 71.201C512.263 71.732 513.463 72.001 514.8 72.001H515.2C517.062 72.001 519.2 69.863 521.599 65.602H521.999C522.262 65.602 522.53 66.533 522.799 68.401C524.13 69.733 526.13 70.801 528.799 71.602C531.199 71.064 532.4 70.401 532.4 69.602L524.4 44.802C525.2 41.332 525.862 39.6 526.4 39.6ZM244.8 41.2H245.6C247.462 41.2 248.8 42.531 249.6 45.2V46.8C249.6 47.062 248.531 47.462 246.4 48C244.531 51.462 242 53.2 238.8 53.2V52C241.463 50.931 243.732 49.332 245.6 47.2V46.8C244.263 46.8 243.6 46.531 243.6 46C243.6 42.8 244 41.2 244.8 41.2ZM270.8 19.2L271.2 19.6V20C271.2 20.8 264.8 24 252 29.6C249.062 30.4 246.263 32.138 243.6 34.8L244 35.6L243.6 36L242.4 34.8V33.2C243.2 31.337 252.663 26.669 270.8 19.2ZM246.8 11.2H248.8L250.4 13.2V14C249.6 15.6 248.263 16.4 246.4 16.4L245.6 14.4C245.862 12.269 246.263 11.2 246.8 11.2ZM263.6 37.6C264.931 38.931 265.6 40.531 265.6 42.4C265.6 43.463 263.862 44.263 260.4 44.8C258.8 44.262 258 43.2 258 41.6V40L258.4 39.6C259.2 41.462 259.862 42.4 260.4 42.4H261.2L260.4 38H261.2L262.4 41.6H263.6L262.4 38L262.8 37.6H263.6ZM286.8 10.8H287.6C289.463 10.8 290.401 11.468 290.401 12.8C290.401 16 288.263 17.6 284.001 17.6L278.401 16.4V18.4H277.6L276.8 17.6C276.8 15.2 277.732 13.869 279.6 13.6L282 14.8C282.8 13.469 284.4 12.138 286.8 10.8ZM279.6 22.8C282.8 28.4 284.401 32 284.401 33.6V34.8L284.001 35.6L283.201 34.8H282.801V35.6C286.001 55.331 287.601 68.132 287.601 74V76.399C287.601 79.6 286.663 81.6 284.801 82.399H284.4V81.6L284.799 74.399L282.799 61.2L277.999 31.2L277.599 28.8V27.2C278.131 24.269 278.8 22.8 279.6 22.8ZM284.4 14.8V15.2L287.599 14.4V13.2H287.2C285.331 13.469 284.4 14 284.4 14.8ZM324 90.8C322.4 91.863 312.4 96 294 103.2L293.6 102.8V102.4C294.131 100.8 304 96.663 323.2 90L324 90.8ZM295.6 59.2C297.463 59.2 298.401 60.263 298.401 62.399V62.799L297.6 64C297.6 63.2 296.662 62.663 294.8 62.399L294 61.6V61.2C294.263 59.862 294.8 59.2 295.6 59.2ZM298.4 42.4L299.6 44V44.8C299.6 45.062 298.932 45.2 297.6 45.2L298.4 46H302V46.8C302 48.4 299.6 49.731 294.8 50.8V50.4L296.401 48.4L294.8 46.8V46C295.331 43.6 296.531 42.4 298.4 42.4ZM301.2 57.6L302.8 58.4V59.2C302.8 60 302.263 60.399 301.2 60.399V62.399L300.4 64.399H300V59.2L301.2 57.6ZM301.2 79.2C303.599 81.062 306 82 308.4 82C307.331 79.601 305.862 78.399 304 78.399C302.131 78.663 301.2 78.931 301.2 79.2ZM310.4 100.8H311.2C313.331 100.8 314.4 101.863 314.4 104C314.4 104.8 312.799 105.331 309.599 105.601V106.8L311.599 114H311.2C310.931 114 309.731 111.331 307.599 106C307.599 104.931 308.262 104 309.599 103.2V102.8V102.4L310.4 100.8ZM509.2 89.2H510V89.6C510 91.731 508.662 92.799 506 92.799L504.8 93.199H502.4H502C496.4 97.73 492.8 99.999 491.2 99.999V99.6L498 94.399L502.4 90.799L506.4 91.199V90.799L507.2 89.6L508 90.8L509.2 89.2ZM505.2 36.8C506.531 37.331 507.2 38.262 507.2 39.6V40C507.2 41.063 506.131 41.863 504 42.4H503.6C502.8 42.4 502.401 41.6 502.401 40C503.463 38.131 504.4 37.063 505.2 36.8ZM504 38.8L503.6 39.6L504.4 40H504.799L505.599 39.6L504 38.8ZM505.2 52.4C507.062 53.2 508 54.531 508 56.4H507.2H506.8C506.8 56.131 506 55.732 504.401 55.2V53.2L505.2 52.4ZM511.2 52L511.599 53.2V54.4C510.531 54.4 509.999 55.063 509.999 56.4H508.799C509.331 53.462 510.131 52 511.2 52ZM541.6 98C540.532 99.601 529.6 103.731 508.8 110.399V109.6C510.4 108.263 521.331 104.399 541.6 98ZM525.2 88.8H525.599C527.462 88.8 529.33 90 531.2 92.4C531.2 94.263 530.4 95.732 528.8 96.8H528.4C527.062 96.8 525.462 95.732 523.599 93.601V93.201L525.2 88.8Z" fill="black"/>
</g>
<defs>
<clipPath id="clip0_644_5">
<rect width="541.6" height="118.399" fill="white"/>
</clipPath>
</defs>
</svg>
