<svg width="20" height="20" viewBox="0 0 20 20" fill="none" xmlns="http://www.w3.org/2000/svg">
<g clip-path="url(#clip0_526_10)">
<path d="M2.93002 17.07C1.97492 16.1475 1.21309 15.0441 0.689004 13.824C0.164914 12.604 -0.110948 11.2918 -0.122486 9.964C-0.134024 8.63621 0.118993 7.31941 0.621801 6.09045C1.12461 4.86148 1.86714 3.74496 2.80607 2.80604C3.745 1.86711 4.86151 1.12458 6.09048 0.621771C7.31944 0.118962 8.63624 -0.134055 9.96403 -0.122517C11.2918 -0.110979 12.604 0.164884 13.8241 0.688974C15.0441 1.21306 16.1476 1.97489 17.07 2.92999C18.8916 4.81601 19.8995 7.34203 19.8768 9.964C19.854 12.586 18.8023 15.0941 16.9482 16.9482C15.0941 18.8023 12.586 19.8539 9.96403 19.8767C7.34206 19.8995 4.81604 18.8916 2.93002 17.07ZM11.4 9.99999L14.23 7.16999L12.82 5.75999L10 8.58999L7.17002 5.75999L5.76002 7.16999L8.59002 9.99999L5.76002 12.83L7.17002 14.24L10 11.41L12.83 14.24L14.24 12.83L11.41 9.99999H11.4Z" fill="black"/>
</g>
<defs>
<clipPath id="clip0_526_10">
<rect width="20" height="20" fill="white"/>
</clipPath>
</defs>
</svg>
