<svg width="33" height="25" viewBox="0 0 33 25" fill="none" xmlns="http://www.w3.org/2000/svg">
<g clip-path="url(#clip0_20_22)">
<path d="M7.50002 24.8769V12.0648L3.54582 8.42967L0 6.41244V22.6159C0 23.867 1.00869 24.8769 2.25006 24.8769H7.50002Z" fill="#4285F4"/>
<path d="M25.5 24.8769H30.7499C31.995 24.8769 33 23.8632 33 22.6159V6.41256L28.9838 8.72306L25.5 12.0648V24.8769Z" fill="#34A853"/>
<path d="M7.50003 12.0648L6.96198 7.05868L7.50003 2.26736L16.5 9.05026L25.5 2.26736L26.1018 6.8L25.5 12.0648L16.5 18.8477L7.50003 12.0648Z" fill="#EA4335"/>
<path d="M25.5 2.26736V12.0648L33 6.41244V3.3978C33 0.601816 29.8237 -0.992097 27.6001 0.684717L25.5 2.26736Z" fill="#FBBC04"/>
<path d="M0 6.41245L3.4494 9.0122L7.50002 12.0648V2.26738L5.39988 0.684734C3.17238 -0.992209 0 0.601833 0 3.39769V6.41232V6.41245Z" fill="#C5221F"/>
</g>
<defs>
<clipPath id="clip0_20_22">
<rect width="33" height="25" fill="white"/>
</clipPath>
</defs>
</svg>
