<svg width="24" height="24" viewBox="0 0 24 24" fill="none" xmlns="http://www.w3.org/2000/svg">
<g clip-path="url(#clip0_45_5)">
<path d="M1.30286 6.612C2.32164 4.62389 3.88454 2.95261 5.81686 1.78496C7.74917 0.617312 9.97477 -0.000700282 12.2449 5.95478e-07C15.5449 5.95478e-07 18.3171 1.188 20.4367 3.126L16.9261 6.5676C15.6563 5.3784 14.0425 4.7724 12.2449 4.7724C9.0551 4.7724 6.3551 6.8844 5.39388 9.72C5.14898 10.44 5.00939 11.208 5.00939 12C5.00939 12.792 5.14898 13.56 5.39388 14.28C6.35633 17.1168 9.0551 19.2276 12.2449 19.2276C13.8918 19.2276 15.2939 18.8016 16.391 18.0816C17.0271 17.6712 17.5716 17.1387 17.9917 16.5162C18.4118 15.8937 18.6987 15.1942 18.8351 14.46H12.2449V9.8184H23.7771C23.9216 10.6032 24 11.4216 24 12.2724C24 15.9276 22.6653 19.0044 20.3486 21.0924C18.3233 22.926 15.551 24 12.2449 24C10.6367 24.0006 9.04413 23.6907 7.55822 23.0878C6.07231 22.485 4.72218 21.6011 3.58501 20.4867C2.44784 19.3723 1.54591 18.0491 0.930777 16.5929C0.315642 15.1368 -0.000642687 13.576 9.80467e-07 12C9.80467e-07 10.0632 0.472654 8.232 1.30286 6.612Z" fill="#DD4B39"/>
</g>
<defs>
<clipPath id="clip0_45_5">
<rect width="24" height="24" fill="white"/>
</clipPath>
</defs>
</svg>
